HIERARCHY
ROOT Root
{
  OFFSET 0.0 0.0 0.0
  CHANNELS 6 Xposition Yposition Zposition Zrotation Yrotation Xrotation
  JOINT Hips
  {
    OFFSET 0.0 100.0 0.0
    CHANNELS 6 Xposition Yposition Zposition Zrotation Yrotation Xrotation
    JOINT Spine1
    {
      OFFSET -0.013727 5.003763 -0.053727
      CHANNELS 3 Zrotation Yrotation Xrotation
      JOINT Spine2
      {
        OFFSET -0.0 7.125301 -0.029825
        CHANNELS 3 Zrotation Yrotation Xrotation
        JOINT Chest
        {
          OFFSET -1e-06 7.550063 -0.815971
          CHANNELS 3 Zrotation Yrotation Xrotation
          JOINT Neck1
          {
            OFFSET -0.181677 26.311295 -0.553348
            CHANNELS 3 Zrotation Yrotation Xrotation
            JOINT Neck2
            {
              OFFSET -3e-06 7.709397 2.302585
              CHANNELS 3 Zrotation Yrotation Xrotation
              JOINT Head
              {
                OFFSET -5e-06 6.128916 1.953709
                CHANNELS 3 Zrotation Yrotation Xrotation
                JOINT HeadEnd
                {
                  OFFSET 0.003598 16.065403 -1.835379
                  CHANNELS 3 Zrotation Yrotation Xrotation
                }
                JOINT Jaw
                {
                  OFFSET 0.002637 0.475592 3.094941
                  CHANNELS 3 Zrotation Yrotation Xrotation
                }
                JOINT LeftEye
                {
                  OFFSET 3.206381 5.380205 7.586883
                  CHANNELS 3 Zrotation Yrotation Xrotation
                }
                JOINT RightEye
                {
                  OFFSET -3.22244 5.361869 7.558234
                  CHANNELS 3 Zrotation Yrotation Xrotation
                }
              }
            }
          }
          JOINT LeftShoulder
          {
            OFFSET 1.621652 23.237164 5.113413
            CHANNELS 3 Zrotation Yrotation Xrotation
            JOINT LeftArm
            {
              OFFSET 14.919846 2e-06 -5.502326
              CHANNELS 3 Zrotation Yrotation Xrotation
              JOINT LeftForeArm
              {
                OFFSET 28.739307 0.0 -0.002588
                CHANNELS 3 Zrotation Yrotation Xrotation
                JOINT LeftHand
                {
                  OFFSET 27.093981 -1e-06 0.002609
                  CHANNELS 3 Zrotation Yrotation Xrotation
                  JOINT LeftHandThumb1
                  {
                    OFFSET 2.276482 -1.392045 3.191413
                    CHANNELS 3 Zrotation Yrotation Xrotation
                    JOINT LeftHandThumb2
                    {
                      OFFSET 4.012836 -1.828127 1.641654
                      CHANNELS 3 Zrotation Yrotation Xrotation
                      JOINT LeftHandThumb3
                      {
                        OFFSET 2.798515 0.0 -3e-06
                        CHANNELS 3 Zrotation Yrotation Xrotation
                        JOINT LeftHandThumbEnd
                        {
                          OFFSET 3.180793 -4e-06 4e-06
                          CHANNELS 3 Zrotation Yrotation Xrotation
                        }
                      }
                    }
                  }
                  JOINT LeftHandIndex1
                  {
                    OFFSET 3.247555 -0.531998 2.296169
                    CHANNELS 3 Zrotation Yrotation Xrotation
                    JOINT LeftHandIndex2
                    {
                      OFFSET 6.364578 0.01206 0.1786
                      CHANNELS 3 Zrotation Yrotation Xrotation
                      JOINT LeftHandIndex3
                      {
                        OFFSET 3.662364 0.0 0.0
                        CHANNELS 3 Zrotation Yrotation Xrotation
                        JOINT LeftHandIndex4
                        {
                          OFFSET 2.329242 4e-06 4e-06
                          CHANNELS 3 Zrotation Yrotation Xrotation
                          JOINT LeftHandIndexEnd
                          {
                            OFFSET 2.759615 -0.180537 -0.113024
                            CHANNELS 3 Zrotation Yrotation Xrotation
                          }
                        }
                      }
                    }
                  }
                  JOINT LeftHandMiddle1
                  {
                    OFFSET 3.163495 0.240981 1.000332
                    CHANNELS 3 Zrotation Yrotation Xrotation
                    JOINT LeftHandMiddle2
                    {
                      OFFSET 6.19078 -0.259278 -1.002548
                      CHANNELS 3 Zrotation Yrotation Xrotation
                      JOINT LeftHandMiddle3
                      {
                        OFFSET 4.35652 -4e-06 -1e-06
                        CHANNELS 3 Zrotation Yrotation Xrotation
                        JOINT LeftHandMiddle4
                        {
                          OFFSET 2.996877 -8e-06 0.0
                          CHANNELS 3 Zrotation Yrotation Xrotation
                          JOINT LeftHandMiddleEnd
                          {
                            OFFSET 2.304287 -0.294569 -0.031741
                            CHANNELS 3 Zrotation Yrotation Xrotation
                          }
                        }
                      }
                    }
                  }
                  JOINT LeftHandRing1
                  {
                    OFFSET 2.882643 -0.053652 -0.322543
                    CHANNELS 3 Zrotation Yrotation Xrotation
                    JOINT LeftHandRing2
                    {
                      OFFSET 5.854541 -0.486202 -1.373841
                      CHANNELS 3 Zrotation Yrotation Xrotation
                      JOINT LeftHandRing3
                      {
                        OFFSET 4.350578 0.0 3e-06
                        CHANNELS 3 Zrotation Yrotation Xrotation
                        JOINT LeftHandRing4
                        {
                          OFFSET 2.651321 7e-06 2e-06
                          CHANNELS 3 Zrotation Yrotation Xrotation
                          JOINT LeftHandRingEnd
                          {
                            OFFSET 1.936105 0.077687 -7.1e-05
                            CHANNELS 3 Zrotation Yrotation Xrotation
                          }
                        }
                      }
                    }
                  }
                  JOINT LeftHandPinky1
                  {
                    OFFSET 2.8655 -0.310005 -1.600378
                    CHANNELS 3 Zrotation Yrotation Xrotation
                    JOINT LeftHandPinky2
                    {
                      OFFSET 5.087849 -1.331141 -1.77123
                      CHANNELS 3 Zrotation Yrotation Xrotation
                      JOINT LeftHandPinky3
                      {
                        OFFSET 3.070974 4e-06 0.0
                        CHANNELS 3 Zrotation Yrotation Xrotation
                        JOINT LeftHandPinky4
                        {
                          OFFSET 1.549672 0.0 1e-06
                          CHANNELS 3 Zrotation Yrotation Xrotation
                          JOINT LeftHandPinkyEnd
                          {
                            OFFSET 1.944893 -0.157802 0.057219
                            CHANNELS 3 Zrotation Yrotation Xrotation
                          }
                        }
                      }
                    }
                  }
                }
              }
            }
          }
          JOINT RightShoulder
          {
            OFFSET -1.380118 23.180309 5.214158
            CHANNELS 3 Zrotation Yrotation Xrotation
            JOINT RightArm
            {
              OFFSET -15.037196 1.2e-05 -5.545604
              CHANNELS 3 Zrotation Yrotation Xrotation
              JOINT RightForeArm
              {
                OFFSET -28.736639 2e-06 -0.002597
                CHANNELS 3 Zrotation Yrotation Xrotation
                JOINT RightHand
                {
                  OFFSET -27.133619 -0.0 0.002613
                  CHANNELS 3 Zrotation Yrotation Xrotation
                  JOINT RightHandThumb1
                  {
                    OFFSET -2.274032 -1.383988 3.163127
                    CHANNELS 3 Zrotation Yrotation Xrotation
                    JOINT RightHandThumb2
                    {
                      OFFSET -4.011429 -1.827466 1.640914
                      CHANNELS 3 Zrotation Yrotation Xrotation
                      JOINT RightHandThumb3
                      {
                        OFFSET -2.794935 -4e-06 -3e-06
                        CHANNELS 3 Zrotation Yrotation Xrotation
                        JOINT RightHandThumbEnd
                        {
                          OFFSET -3.183852 4e-06 1e-06
                          CHANNELS 3 Zrotation Yrotation Xrotation
                        }
                      }
                    }
                  }
                  JOINT RightHandIndex1
                  {
                    OFFSET -3.253266 -0.520057 2.282866
                    CHANNELS 3 Zrotation Yrotation Xrotation
                    JOINT RightHandIndex2
                    {
                      OFFSET -6.341917 0.012471 0.178266
                      CHANNELS 3 Zrotation Yrotation Xrotation
                      JOINT RightHandIndex3
                      {
                        OFFSET -3.654871 -8e-06 -0.0
                        CHANNELS 3 Zrotation Yrotation Xrotation
                        JOINT RightHandIndex4
                        {
                          OFFSET -2.327586 0.0 1e-06
                          CHANNELS 3 Zrotation Yrotation Xrotation
                          JOINT RightHandIndexEnd
                          {
                            OFFSET -2.76179 -0.180656 -0.113078
                            CHANNELS 3 Zrotation Yrotation Xrotation
                          }
                        }
                      }
                    }
                  }
                  JOINT RightHandMiddle1
                  {
                    OFFSET -3.168106 0.246593 1.00103
                    CHANNELS 3 Zrotation Yrotation Xrotation
                    JOINT RightHandMiddle2
                    {
                      OFFSET -6.180828 -0.258836 -1.000895
                      CHANNELS 3 Zrotation Yrotation Xrotation
                      JOINT RightHandMiddle3
                      {
                        OFFSET -4.348901 0.0 -0.0
                        CHANNELS 3 Zrotation Yrotation Xrotation
                        JOINT RightHandMiddle4
                        {
                          OFFSET -3.00024 -4e-06 -2e-06
                          CHANNELS 3 Zrotation Yrotation Xrotation
                          JOINT RightHandMiddleEnd
                          {
                            OFFSET -2.30252 -0.29437 -0.031706
                            CHANNELS 3 Zrotation Yrotation Xrotation
                          }
                        }
                      }
                    }
                  }
                  JOINT RightHandRing1
                  {
                    OFFSET -2.88569 -0.067952 -0.308858
                    CHANNELS 3 Zrotation Yrotation Xrotation
                    JOINT RightHandRing2
                    {
                      OFFSET -5.854198 -0.48613 -1.373731
                      CHANNELS 3 Zrotation Yrotation Xrotation
                      JOINT RightHandRing3
                      {
                        OFFSET -4.33881 -4e-06 -0.0
                        CHANNELS 3 Zrotation Yrotation Xrotation
                        JOINT RightHandRing4
                        {
                          OFFSET -2.654903 -4e-06 4e-06
                          CHANNELS 3 Zrotation Yrotation Xrotation
                          JOINT RightHandRingEnd
                          {
                            OFFSET -1.933568 0.077527 -5.2e-05
                            CHANNELS 3 Zrotation Yrotation Xrotation
                          }
                        }
                      }
                    }
                  }
                  JOINT RightHandPinky1
                  {
                    OFFSET -2.866425 -0.342796 -1.584145
                    CHANNELS 3 Zrotation Yrotation Xrotation
                    JOINT RightHandPinky2
                    {
                      OFFSET -5.091371 -1.332055 -1.772385
                      CHANNELS 3 Zrotation Yrotation Xrotation
                      JOINT RightHandPinky3
                      {
                        OFFSET -3.062664 -4e-06 1e-06
                        CHANNELS 3 Zrotation Yrotation Xrotation
                        JOINT RightHandPinky4
                        {
                          OFFSET -1.546529 4e-06 -2e-06
                          CHANNELS 3 Zrotation Yrotation Xrotation
                          JOINT RightHandPinkyEnd
                          {
                            OFFSET -1.945119 -0.157718 0.057211
                            CHANNELS 3 Zrotation Yrotation Xrotation
                          }
                        }
                      }
                    }
                  }
                }
              }
            }
          }
        }
      }
    }
    JOINT LeftLeg
    {
      OFFSET 10.043214 -8.434526 2.595655
      CHANNELS 3 Zrotation Yrotation Xrotation
      JOINT LeftShin
      {
        OFFSET -1e-06 -43.221752 -0.802913
        CHANNELS 3 Zrotation Yrotation Xrotation
        JOINT LeftFoot
        {
          OFFSET 1e-06 -42.155094 -3.481523
          CHANNELS 3 Zrotation Yrotation Xrotation
          JOINT LeftToeBase
          {
            OFFSET 0.0 -5.059472 13.231529
            CHANNELS 3 Zrotation Yrotation Xrotation
            JOINT LeftToeEnd
            {
              OFFSET -0.009607 -1.647619 6.513017
              CHANNELS 3 Zrotation Yrotation Xrotation
            }
          }
        }
      }
    }
    JOINT RightLeg
    {
      OFFSET -10.047278 -8.29526 2.620317
      CHANNELS 3 Zrotation Yrotation Xrotation
      JOINT RightShin
      {
        OFFSET 1e-06 -43.362206 -0.805556
        CHANNELS 3 Zrotation Yrotation Xrotation
        JOINT RightFoot
        {
          OFFSET 2e-06 -42.117393 -3.478398
          CHANNELS 3 Zrotation Yrotation Xrotation
          JOINT RightToeBase
          {
            OFFSET -0.0 -5.079609 13.284196
            CHANNELS 3 Zrotation Yrotation Xrotation
            JOINT RightToeEnd
            {
              OFFSET 0.009532 -1.634378 6.460591
              CHANNELS 3 Zrotation Yrotation Xrotation
            }
          }
        }
      }
    }
  }
}
MOTION
Frames: 4
Frame Time: 0.03333333333333333
0.0 0.0 0.0 0.0 -0.0 0.0 -1.999272 98.808876 2.071615 -2.301565 -0.021227 4.310215 2.603693 0.062383 1.470248 0.214405 -0.711771 -4.560464 1.402217 -2.24841 9.296976 -3.409214 4.011976 -2.040299 -0.148323 -0.186853 -3.60987 -2.304362 0.372683 -14.864677 7.7e-05 -2.3e-05 6e-06 -0.000685 -0.095112 -0.012203 0.698488 -3.822562 -10.603145 -0.704939 3.645693 -10.567438 -11.895854 -6.210758 17.176451 -42.066071 -7.64391 28.724298 -0.92979 -46.075436 0.363856 2.924623 -2.1465 5.91421 -5.882098 9.861276 0.702589 -10.936856 -0.360576 7.156199 1e-06 8.774817 -3e-06 -15.599998 18.061701 6.179475 -1.844028 2.498502 -2.507276 -10.163588 4.678939 4.621101 -20.975996 -5e-06 3e-06 -21.226257 2.451693 -3.593994 2e-06 -6e-06 1e-06 -1.36268 2.240796 -0.746323 -21.334888 0.584906 3.008321 -13.821198 -3e-06 4e-06 -23.88714 -0.249081 -0.839482 -60.115623 2.416909 -0.969578 -0.294026 1.679685 0.833255 -14.21819 0.093214 1.300579 -34.212013 -0.287565 0.96717 -20.033188 0.964534 1.212845 1e-06 -0.0 0.0 -3.440383 0.788233 0.501654 -15.928167 -3.167307 2.999707 -6.338818 -1e-06 2e-06 -18.123425 3.648178 -4.905666 -4e-06 -0.0 -3e-06 9.215836 15.082584 15.131169 48.895027 1.449869 17.950819 0.785702 48.966969 0.869554 3.126687 1.629904 2.720576 2.243538 -5.255032 -3.180155 14.282874 -0.826592 6.952498 -4e-06 -12.690592 2e-06 16.220947 -17.773134 2.49232 1.665663 -1.955919 -2.878298 4.727791 -4.170581 4.993921 11.020513 5e-06 -0.0 12.109036 -3.73571 -2.866783 1e-06 -1e-06 1e-06 1.291984 -1.928547 -1.498088 14.800112 0.56747 3.865605 14.242557 -1.341733 -6.660654 19.631945 0.143927 -0.648242 49.960567 -0.851053 -6.703393 0.353028 -1.511149 -0.031943 20.222769 3.684307 2.316631 18.787252 6e-06 3e-06 10.751616 -0.479868 1.397905 3e-06 1e-06 -1e-06 3.273803 0.305947 -0.580112 21.486788 11.830364 2.266131 8.162914 2e-06 -1e-06 18.399055 -3.79898 -4.940567 3e-06 -0.0 -1e-06 6.581982 3.037583 -11.178638 0.037078 -0.284433 27.035156 -8.085625 1.956561 -13.035662 1.744537 -1.976012 -3.338963 0.0 -0.0 2e-06 1.689827 -3.374486 -9.023539 0.069288 0.290134 15.218226 3.13553 -2.399923 -11.339811 -1.442903 0.994679 -0.856977 0.0 0.0 -1e-06 
0.0 0.0 0.0 0.0 -0.0 0.0 -2.445113 98.751556 3.424192 -2.905432 0.225508 3.871496 3.243277 0.225622 1.881158 0.278721 -0.483058 -4.530147 1.568851 -2.060672 9.471188 -3.606901 3.915612 -2.149211 -0.2161 -0.101471 -3.599908 -2.437267 0.246595 -14.778725 7.7e-05 -2.3e-05 5e-06 0.010704 -0.112405 0.001515 0.691097 -3.83619 -10.53183 -0.675884 3.623373 -10.512689 -11.794586 -5.979095 17.339537 -42.469143 -7.723112 29.308533 -0.855784 -45.022152 0.467487 2.686027 -2.214071 5.868413 -5.882099 9.861279 0.702588 -10.936863 -0.360575 7.156201 -0.0 8.774819 -2e-06 -15.676364 18.024792 6.241264 -1.844031 2.498503 -2.507277 -10.16359 4.678941 4.621107 -20.976006 -3e-06 4e-06 -21.226271 2.451696 -3.593996 -0.0 -6e-06 1e-06 -1.362679 2.240796 -0.746322 -21.334896 0.58491 3.008322 -13.821201 -1e-06 4e-06 -23.887152 -0.249076 -0.839482 -60.451443 2.413484 -0.850192 -0.294024 1.679686 0.833256 -14.218197 0.093215 1.300581 -34.212021 -0.287562 0.967172 -20.033197 0.964538 1.212843 0.0 -0.0 0.0 -3.440386 0.788233 0.501657 -15.928172 -3.167308 2.999706 -6.338821 -1e-06 3e-06 -18.12343 3.648182 -4.905665 -5e-06 -0.0 -4e-06 8.998549 15.458552 15.667839 48.87862 1.677808 18.380234 0.388166 48.817955 0.584501 3.292975 1.509194 2.170525 2.24354 -5.255035 -3.180156 14.282886 -0.826595 6.952499 -2e-06 -12.690601 -2e-06 16.211607 -17.852207 2.455994 1.665665 -1.955922 -2.878298 4.727797 -4.170588 4.993925 11.020522 3e-06 0.0 12.109048 -3.735714 -2.866783 0.0 -1e-06 0.0 1.291984 -1.928548 -1.498089 14.800123 0.567469 3.865604 14.242568 -1.341735 -6.660654 19.631958 0.143925 -0.648243 49.855835 -0.706953 -6.563356 0.353029 -1.511152 -0.031941 20.222786 3.684309 2.31663 18.787268 5e-06 2e-06 10.751624 -0.479869 1.397907 2e-06 1e-06 0.0 3.273805 0.305948 -0.58011 21.486805 11.830371 2.266132 8.162923 1e-06 0.0 18.399076 -3.798983 -4.940573 3e-06 -1e-06 1e-06 7.715762 3.299483 -15.312413 -0.073957 -0.40943 37.096443 -7.693738 2.039237 -11.809128 1.770523 -2.001613 -5.76817 0.0 -0.0 2e-06 2.573753 -3.359849 -6.234705 0.057582 0.224108 12.537762 3.059254 -2.629261 -11.59325 -1.436776 0.955462 -0.812648 0.0 0.0 -1e-06 
0.0 0.0 0.0 0.0 -0.0 0.0 -2.814439 98.683922 4.969429 -3.22103 0.319124 3.132837 3.652541 0.324583 2.409044 0.309712 -0.171111 -4.408969 1.731173 -1.712574 9.720529 -3.713773 3.949259 -2.084801 -0.319003 -0.229965 -3.586723 -2.502113 0.167493 -14.912091 7.7e-05 -2.3e-05 6e-06 0.0028 -0.142256 0.023606 0.670234 -3.876573 -10.527307 -0.671426 3.603346 -10.516031 -11.798108 -5.652042 17.289034 -42.901909 -7.620893 29.726637 -0.867925 -44.202702 0.575515 2.481317 -2.105556 6.337323 -5.882099 9.861275 0.70259 -10.936859 -0.360575 7.156201 1e-06 8.774815 0.0 -15.728963 17.934267 6.257161 -1.844031 2.498502 -2.507276 -10.163589 4.678939 4.621106 -20.976004 -3e-06 4e-06 -21.226265 2.451694 -3.593996 -1e-06 -6e-06 -2e-06 -1.362678 2.240796 -0.746322 -21.334888 0.584909 3.008323 -13.821198 -3e-06 3e-06 -23.887144 -0.249077 -0.839481 -60.757477 2.347557 -0.795952 -0.294024 1.679685 0.833255 -14.218194 0.093215 1.300581 -34.212013 -0.287561 0.967173 -20.033192 0.964539 1.212845 -0.0 -1e-06 0.0 -3.440384 0.788232 0.501654 -15.928168 -3.167307 2.999707 -6.338819 -1e-06 1e-06 -18.123426 3.648179 -4.905663 -3e-06 -1e-06 -3e-06 8.946154 15.762402 16.185232 48.466747 1.922598 18.886335 -0.063369 48.943886 0.313743 3.402377 1.543606 1.632082 2.243539 -5.255033 -3.18016 14.28288 -0.826593 6.952497 -2e-06 -12.690593 -2e-06 16.092043 -17.900682 2.525104 1.665664 -1.95592 -2.878297 4.727797 -4.170583 4.993923 11.020517 2e-06 2e-06 12.10904 -3.735713 -2.866781 -0.0 -0.0 3e-06 1.291986 -1.928549 -1.498088 14.800115 0.567467 3.865607 14.242558 -1.341736 -6.660651 19.631948 0.143925 -0.648241 49.860401 -0.73388 -6.532854 0.353028 -1.511149 -0.031938 20.222775 3.684307 2.316633 18.787256 2e-06 3e-06 10.751617 -0.479872 1.39791 0.0 1e-06 0.0 3.273803 0.305947 -0.580111 21.486794 11.830359 2.266134 8.16292 1e-06 0.0 18.399063 -3.798982 -4.940567 3e-06 -0.0 0.0 8.255335 3.686888 -19.686323 -0.173947 -0.439096 47.036987 -6.125018 3.002817 -10.707617 1.762272 -1.994963 -5.725383 -0.0 -0.0 2e-06 3.022706 -3.459949 -3.031551 0.035446 0.159385 9.766723 2.784051 -2.432152 -11.552053 -1.425337 0.9354 -0.865614 -0.0 0.0 -1e-06 
0.0 0.0 0.0 0.0 -0.0 0.0 -3.056119 98.643913 6.71117 -2.977087 0.097836 2.450363 3.66477 0.426852 2.801842 0.282549 0.221005 -4.262314 1.714958 -1.317199 9.94502 -3.816593 4.069598 -1.97388 -0.416449 -0.330411 -3.618848 -2.463439 0.088179 -15.140199 7.7e-05 -2.2e-05 6e-06 -0.008942 -0.132229 0.026245 0.652162 -3.873274 -10.545587 -0.677859 3.618439 -10.544381 -11.983395 -5.042423 17.225351 -43.320438 -7.329457 30.214903 -0.779297 -43.384987 0.674179 2.320915 -1.892661 6.852911 -5.882106 9.861286 0.70259 -10.936873 -0.360574 7.156206 1e-06 8.774826 0.0 -15.815274 17.960072 6.219746 -1.844032 2.498504 -2.507278 -10.163601 4.678945 4.621108 -20.976027 -4e-06 2e-06 -21.226292 2.451696 -3.594002 -2e-06 -6e-06 -2e-06 -1.362681 2.240798 -0.746323 -21.334917 0.584909 3.008324 -13.821215 -3e-06 5e-06 -23.887175 -0.249079 -0.839483 -61.03867 2.32745 -0.883192 -0.294026 1.679688 0.833256 -14.21821 0.093215 1.300581 -34.212051 -0.287564 0.967171 -20.033215 0.964538 1.212842 0.0 -0.0 0.0 -3.440388 0.788233 0.501656 -15.928187 -3.16731 2.999705 -6.338827 -1e-06 1e-06 -18.123446 3.648184 -4.905672 -2e-06 -1e-06 -3e-06 8.985323 15.981356 16.561985 47.984535 2.206208 19.118267 -0.06219 49.20977 0.394289 3.25471 1.826279 2.047663 2.243541 -5.255034 -3.180157 14.282879 -0.826593 6.952499 -2e-06 -12.690594 -1e-06 16.008175 -17.902592 2.602723 1.665663 -1.955921 -2.878298 4.727795 -4.170584 4.99392 11.020518 3e-06 -2e-06 12.109043 -3.735713 -2.866783 -0.0 0.0 0.0 1.291984 -1.928548 -1.498089 14.800117 0.567469 3.865607 14.24256 -1.341735 -6.660655 19.631952 0.143928 -0.648244 49.957924 -0.813023 -6.498217 0.353028 -1.51115 -0.031941 20.222775 3.684307 2.316627 18.787258 5e-06 -1e-06 10.75162 -0.479868 1.397904 3e-06 2e-06 -1e-06 3.273805 0.305947 -0.580109 21.486794 11.830366 2.266131 8.162921 1e-06 -2e-06 18.399067 -3.798985 -4.940571 3e-06 -0.0 0.0 7.903215 4.203287 -23.314108 -0.197471 -0.360034 53.080059 -5.285041 3.762326 -10.883266 1.733476 -1.984263 -4.674986 0.0 -0.0 3e-06 2.744396 -3.563129 0.229454 -0.00224 0.143721 7.05194 2.524056 -2.000982 -11.458665 -1.419179 0.928298 -1.003955 0.0 0.0 -1e-06 
